<?xml version="1.0" standalone="no"?>
<!DOCTYPE svg PUBLIC "-//W3C//DTD SVG 20010904//EN"
 "http://www.w3.org/TR/2001/REC-SVG-20010904/DTD/svg10.dtd">
<svg version="1.0" xmlns="http://www.w3.org/2000/svg"
 width="1104.000000pt" height="1104.000000pt" viewBox="0 0 1104.000000 1104.000000"
 preserveAspectRatio="xMidYMid meet">
<metadata>
Created by potrace 1.14, written by Peter Selinger 2001-2017
</metadata>
<g transform="translate(0.000000,1104.000000) scale(0.100000,-0.100000)"
fill="#000000" stroke="none">
<path d="M4854 9878 c3 -68 11 -269 16 -448 5 -179 13 -376 16 -437 l6 -113
61 0 60 0 -6 174 -7 173 77 7 c42 3 129 6 194 6 l118 0 132 -175 132 -175 63
0 c35 0 64 4 64 8 0 5 -60 89 -133 188 l-134 178 56 34 c77 46 117 87 149 152
24 50 27 66 27 165 0 105 -2 114 -33 177 -36 73 -83 120 -157 157 -92 46 -133
51 -429 51 l-278 0 6 -122z m604 -10 c57 -21 111 -68 139 -121 10 -20 18 -63
21 -117 4 -78 2 -89 -25 -140 -33 -64 -97 -112 -177 -134 -29 -8 -128 -17
-233 -21 l-181 -7 -6 94 c-8 136 -19 458 -15 460 12 5 323 13 369 10 30 -3 79
-14 108 -24z"/>
<path d="M6060 9992 c0 -5 13 -40 29 -78 206 -495 291 -707 291 -727 0 -12
-11 -91 -25 -175 -14 -84 -25 -161 -25 -171 0 -16 10 -21 55 -26 31 -4 58 -5
60 -3 3 2 17 88 32 191 l28 186 274 321 c187 220 270 325 263 332 -5 5 -32 11
-59 12 l-49 1 -227 -267 c-125 -147 -231 -269 -236 -272 -5 -3 -24 31 -43 77
-19 45 -81 196 -139 334 -60 147 -110 255 -119 257 -39 11 -110 16 -110 8z"/>
<path d="M4245 9905 c-147 -35 -513 -121 -595 -139 -82 -19 -95 -25 -93 -42 2
-16 79 -348 210 -904 20 -85 40 -159 44 -163 4 -5 85 10 180 32 96 23 266 63
378 89 113 27 206 53 209 60 6 19 -18 92 -31 92 -7 0 -50 -9 -97 -21 -175 -42
-506 -117 -530 -121 -24 -3 -25 0 -71 192 -26 107 -45 197 -44 198 2 2 21 8
42 13 286 66 506 119 510 123 10 9 -9 87 -23 93 -12 4 -178 -33 -462 -102 -67
-17 -94 -20 -97 -12 -4 11 -73 308 -82 352 -4 18 12 24 184 64 103 24 246 57
317 74 l128 31 -6 45 c-3 25 -10 48 -14 51 -4 4 -29 1 -57 -5z"/>
<path d="M8050 9488 c-53 -133 -45 -129 -102 -46 -71 104 -71 104 -102 82 -14
-11 -26 -24 -26 -31 0 -6 27 -46 60 -87 33 -42 60 -79 60 -84 0 -5 -45 -14
-101 -20 -56 -7 -105 -15 -110 -18 -14 -8 -11 -64 4 -69 6 -3 57 1 112 9 55 8
101 13 103 11 2 -2 -15 -46 -37 -98 -23 -53 -41 -98 -41 -101 0 -5 54 -36 63
-36 2 0 21 42 42 93 21 50 42 96 46 101 4 4 36 -30 71 -78 34 -47 68 -85 73
-85 13 0 55 35 55 45 0 5 -27 43 -60 86 -33 42 -60 81 -60 86 0 5 37 13 82 17
113 9 128 16 128 60 0 41 5 40 -130 21 -52 -8 -96 -13 -98 -11 -1 1 13 44 33
94 19 51 35 98 35 105 0 12 -40 36 -59 36 -5 0 -23 -37 -41 -82z"/>
<path d="M2498 9324 c-27 -13 -48 -27 -48 -29 0 -9 451 -1000 459 -1008 6 -6
662 283 680 299 5 5 -30 83 -40 89 -6 5 -92 -32 -452 -195 -64 -29 -118 -51
-120 -49 -2 2 -97 210 -212 462 -115 251 -211 457 -214 457 -3 -1 -27 -12 -53
-26z"/>
<path d="M9137 8764 c-74 -23 -160 -112 -182 -186 -31 -109 -3 -181 161 -417
135 -192 150 -262 75 -341 -91 -96 -238 -64 -385 83 -77 77 -141 185 -152 259
-8 44 -11 45 -64 18 -46 -23 -48 -34 -21 -111 52 -151 197 -317 336 -385 74
-37 85 -39 170 -39 80 0 95 3 136 27 102 60 156 155 146 255 -8 74 -48 154
-147 290 -111 153 -140 212 -140 279 0 46 5 58 31 89 63 71 136 84 242 45 87
-33 206 -149 254 -248 20 -43 38 -79 39 -81 2 -2 22 8 46 21 50 28 50 34 5
128 -22 46 -57 90 -117 151 -146 147 -302 205 -433 163z"/>
<path d="M1486 8670 c-21 -16 -41 -32 -44 -34 -6 -7 660 -896 671 -896 5 0
141 99 303 220 198 148 293 224 288 233 -20 32 -49 67 -56 67 -5 0 -120 -83
-256 -184 l-246 -184 -301 403 c-165 222 -304 404 -310 404 -5 0 -27 -13 -49
-29z"/>
<path d="M10038 8081 l-37 -28 110 -157 c60 -86 107 -160 104 -165 -3 -5 -185
-136 -406 -292 -221 -156 -403 -289 -406 -295 -5 -13 47 -93 60 -94 5 0 193
128 417 285 224 157 412 285 416 285 5 0 56 -68 113 -151 58 -82 107 -152 111
-154 10 -6 80 44 80 58 -1 15 -502 730 -515 733 -5 2 -27 -9 -47 -25z"/>
<path d="M701 7848 c-17 -23 -31 -46 -31 -51 0 -5 69 -136 154 -291 300 -549
428 -781 432 -786 6 -5 47 44 65 77 10 19 3 37 -62 155 -41 73 -74 140 -73
148 1 27 353 490 373 490 17 0 225 -40 283 -55 22 -6 30 0 63 45 20 28 36 52
34 54 -2 2 -146 34 -319 71 -173 37 -387 82 -475 101 -221 48 -396 84 -406 84
-4 0 -21 -19 -38 -42z m427 -155 c166 -37 301 -71 300 -75 -6 -16 -300 -408
-306 -408 -4 0 -66 105 -137 233 -71 127 -140 251 -153 275 -13 23 -20 42 -15
42 4 1 144 -30 311 -67z"/>
<path d="M5882 7478 c-40 -22 -226 -233 -1720 -1953 -201 -231 -370 -426 -376
-432 -11 -13 -124 -25 -394 -42 -79 -5 -145 -11 -147 -13 -6 -6 24 -148 50
-236 25 -83 42 -110 90 -137 15 -9 -12 -45 -219 -283 l-237 -272 18 -25 c10
-13 22 -25 26 -25 4 0 141 123 303 273 267 246 299 272 327 270 18 -1 120 -5
228 -9 903 -31 2600 381 3393 823 225 125 418 277 473 371 52 88 42 250 -28
469 -16 51 -34 95 -39 98 -5 3 -73 -38 -152 -91 -545 -367 -1164 -655 -1814
-844 -239 -70 -665 -164 -1014 -224 -218 -38 -510 -80 -515 -74 -1 2 114 111
257 243 406 377 416 385 444 385 14 0 48 -16 77 -35 64 -43 88 -44 132 -2 54
51 1235 1379 1256 1412 23 37 24 98 3 133 -17 30 -247 210 -291 229 -43 18
-86 15 -131 -9z m-2076 -2582 c43 -43 46 -90 9 -134 -32 -38 -72 -48 -116 -29
-45 18 -60 38 -66 86 -5 36 -2 44 30 76 48 48 95 49 143 1z"/>
<path d="M10345 6814 c-234 -36 -423 -199 -481 -414 -23 -85 -22 -224 1 -315
43 -171 156 -316 299 -385 95 -45 160 -60 259 -60 191 0 386 106 489 265 130
200 104 505 -62 712 -53 67 -172 147 -258 173 -67 21 -190 33 -247 24z m269
-157 c120 -55 205 -154 247 -286 29 -89 29 -223 0 -303 -111 -315 -535 -409
-763 -170 -102 107 -144 223 -136 379 3 77 9 101 37 157 57 116 158 200 285
238 45 13 88 17 166 15 90 -2 113 -7 164 -30z"/>
<path d="M220 6775 c-158 -118 -252 -399 -206 -615 24 -116 68 -193 155 -280
86 -85 147 -120 265 -150 263 -67 527 56 644 300 78 162 93 355 39 503 -14 38
-27 71 -30 74 -7 6 -324 80 -383 89 l-42 6 -11 -52 c-6 -29 -10 -54 -8 -56 2
-2 85 -25 185 -50 l181 -47 16 -68 c20 -90 19 -137 -5 -238 -36 -149 -122
-261 -248 -323 -119 -59 -302 -49 -428 23 -119 68 -206 193 -227 329 -27 176
52 385 177 471 20 13 36 27 36 32 0 11 -51 87 -59 87 -3 0 -26 -16 -51 -35z"/>
<path d="M9945 5288 c-11 -33 -26 -100 -23 -103 2 -2 75 -22 163 -45 88 -22
161 -43 164 -46 2 -2 -13 -68 -34 -146 -20 -79 -42 -162 -48 -185 l-10 -43
-106 -41 c-58 -22 -145 -56 -193 -75 -49 -19 -92 -34 -97 -34 -10 0 -25 -40
-36 -99 -6 -26 -4 -33 6 -29 98 37 411 148 418 148 4 0 11 -20 14 -45 8 -56
47 -134 92 -183 72 -80 229 -134 334 -115 85 16 143 48 204 112 70 74 107 148
146 294 17 64 45 169 62 233 17 64 27 120 22 124 -4 3 -26 12 -48 18 -77 21
-1018 272 -1022 272 -2 0 -6 -6 -8 -12z m620 -279 c272 -73 325 -89 325 -99 0
-22 -83 -326 -100 -366 -11 -24 -40 -67 -66 -94 -37 -39 -59 -54 -102 -66
-152 -45 -312 38 -349 179 -20 80 -16 117 32 301 52 197 52 196 62 196 4 0 93
-23 198 -51z"/>
<path d="M355 4708 c-2 -7 -12 -55 -21 -105 -11 -64 -20 -91 -28 -86 -6 4 -44
36 -84 71 l-73 65 -24 -23 c-14 -13 -25 -29 -25 -35 0 -6 31 -37 70 -69 103
-86 103 -79 -2 -116 -51 -18 -97 -37 -102 -41 -5 -5 -4 -20 3 -37 l12 -29 100
35 c55 19 102 33 104 30 3 -3 -4 -49 -15 -103 -11 -53 -20 -101 -20 -105 0 -8
69 -24 76 -18 3 4 44 205 44 218 0 2 21 -16 48 -40 120 -114 120 -114 137
-100 43 36 39 45 -50 121 l-85 73 102 36 c57 20 103 41 102 46 -1 20 -17 64
-23 64 -3 0 -48 -16 -100 -35 -52 -19 -96 -33 -99 -30 -3 3 3 50 13 106 16 87
17 102 4 110 -21 13 -59 11 -64 -3z"/>
<path d="M9328 3907 l-237 -312 37 -32 c20 -18 40 -33 43 -33 4 0 96 116 204
258 109 141 202 261 206 266 7 8 309 -210 324 -234 4 -6 -73 -113 -169 -238
l-176 -227 33 -27 c17 -15 39 -27 47 -25 8 1 90 102 183 225 l168 222 32 -23
c88 -61 277 -209 277 -216 0 -5 -86 -123 -191 -262 l-192 -252 34 -28 c19 -16
39 -29 46 -29 13 0 463 588 463 605 0 11 -863 669 -883 672 -7 2 -119 -138
-249 -310z"/>
<path d="M1541 3906 l-34 -35 236 -242 236 -243 -147 -142 -147 -142 -201 206
-202 207 -36 -34 c-20 -19 -36 -39 -36 -44 0 -5 84 -96 188 -203 103 -107 188
-199 190 -204 2 -5 -56 -68 -128 -142 l-130 -133 -224 228 c-122 125 -227 227
-232 227 -6 0 -25 -15 -43 -34 l-33 -34 268 -276 268 -276 155 153 c86 84 265
259 399 390 133 130 242 239 242 243 0 8 -542 564 -550 564 -3 0 -21 -15 -39
-34z"/>
<path d="M2341 3173 c0 -10 10 -114 23 -232 l22 -213 -46 6 c-151 20 -294 -67
-369 -224 -31 -65 -36 -85 -36 -151 0 -67 4 -84 38 -151 56 -114 122 -169 370
-310 113 -65 209 -118 214 -118 4 0 15 12 24 28 8 15 131 226 272 469 142 243
259 448 262 455 3 8 -15 24 -45 41 -28 15 -52 27 -53 27 -2 0 -42 -67 -88
-150 -46 -82 -88 -150 -93 -150 -4 0 -81 41 -170 92 -88 50 -162 92 -163 93
-1 0 -9 75 -17 165 -28 292 -21 266 -80 306 -58 39 -66 41 -65 17z m52 -568
c32 -8 106 -43 165 -78 59 -35 133 -78 165 -96 31 -18 57 -36 57 -39 0 -8
-257 -453 -269 -464 -3 -4 -76 32 -160 81 -216 124 -278 190 -288 299 -11 122
51 231 162 287 58 29 89 31 168 10z"/>
<path d="M8910 2470 c-25 -55 -47 -100 -50 -100 -3 0 -29 40 -59 88 -30 48
-56 89 -57 90 -4 6 -64 -32 -64 -40 0 -4 25 -45 55 -92 30 -46 55 -87 55 -90
0 -3 -49 -6 -110 -6 l-110 0 0 -41 0 -41 110 7 c61 4 110 5 110 1 0 -5 -61
-108 -97 -162 -13 -20 -11 -23 19 -42 18 -11 35 -19 39 -17 3 3 28 47 54 99
27 52 51 93 55 91 4 -2 30 -42 60 -89 29 -48 55 -86 57 -86 17 0 62 37 59 47
-3 7 -28 46 -56 88 -27 41 -50 79 -50 85 0 6 40 10 110 10 l110 0 0 40 0 40
-110 -6 c-60 -4 -110 -4 -110 -1 0 3 23 47 50 98 28 51 50 93 50 95 0 5 -58
34 -67 34 -5 0 -28 -45 -53 -100z"/>
<path d="M7235 2531 c-123 -36 -243 -121 -297 -210 -12 -20 -23 -38 -24 -40
-2 -1 -43 20 -93 48 -50 28 -95 51 -99 51 -11 0 -43 -80 -37 -91 3 -4 46 -29
96 -56 l91 -48 -6 -40 c-35 -240 -35 -245 32 -245 l48 0 1 101 c0 55 5 105 11
111 7 7 67 -22 183 -87 96 -53 178 -100 182 -105 5 -4 -13 -35 -40 -69 -108
-133 -131 -228 -82 -327 63 -126 203 -153 367 -73 69 34 131 101 152 165 18
54 8 126 -26 181 -26 41 -131 134 -165 145 -7 2 7 28 40 69 79 98 121 188 121
262 0 33 -5 78 -12 101 -17 57 -99 138 -162 159 -65 22 -201 21 -281 -2z m236
-112 c61 -34 93 -94 94 -174 0 -51 -5 -69 -33 -115 -18 -30 -50 -75 -70 -98
l-38 -44 -212 119 c-116 65 -212 122 -212 128 0 21 77 110 124 142 108 74 256
92 347 42z m87 -637 c16 -15 37 -49 47 -75 24 -63 10 -109 -46 -154 -78 -63
-178 -69 -232 -14 -24 24 -31 40 -35 85 -5 64 16 108 93 194 l46 51 49 -30
c27 -17 62 -42 78 -57z"/>
<path d="M3678 2490 c-128 -23 -228 -79 -320 -178 -261 -283 -184 -729 153
-890 107 -51 194 -72 300 -72 264 0 469 154 548 414 26 85 28 227 5 307 -59
197 -222 351 -428 404 -76 19 -198 26 -258 15z m225 -115 c145 -38 255 -126
316 -254 94 -199 25 -458 -153 -576 -262 -174 -627 -53 -718 237 -24 80 -24
207 1 287 72 231 319 367 554 306z"/>
<path d="M4786 2093 c-3 -98 -9 -350 -12 -559 l-7 -382 43 -7 c34 -6 46 -4 60
11 15 16 149 235 443 722 27 46 53 80 57 75 6 -7 242 -427 408 -726 l55 -98
51 3 51 3 7 370 c3 204 8 454 10 558 l4 187 -56 0 -57 0 -7 -77 c-3 -42 -7
-189 -7 -327 -1 -138 -4 -299 -8 -358 l-6 -107 -206 367 c-205 365 -207 367
-239 367 -35 0 -1 51 -386 -580 -40 -66 -78 -127 -84 -135 -10 -15 -8 256 6
688 l6 182 -60 0 -59 0 -7 -177z"/>
</g>
</svg>
